<svg xmlns="http://www.w3.org/2000/svg" viewBox="0 0 256 256" width="256" height="256">
  <path fill="#F5F5F5" d="M128 24c-18 0-30 8-36 20-5 10-6 22-6 32 0 8-2 14-6 20-5 8-12 16-17 26-6 12-9 26-9 40 0 12 4 24 12 32 7 8 17 12 27 12 7 0 13-2 18-5 4-2 8-5 12-5s8 3 12 5c5 3 11 5 18 5 10 0 20-4 27-12 8-8 12-20 12-32 0-14-3-28-9-40-5-10-12-18-17-26-4-6-6-12-6-20 0-10-1-22-6-32-6-12-18-20-36-20zm-26 56c-6 0-10 5-10 12s4 12 10 12 10-5 10-12-4-12-10-12zm52 0c-6 0-10 5-10 12s4 12 10 12 10-5 10-12-4-12-10-12zm-24 26c6 0 12 5 12 12s-6 12-12 12-12-5-12-12 6-12 12-12z"/>
</svg>
